# xmcd
#
# Track frame offsets:
# 225
# 20538
# 38470
# 57867
# 75358
# 90408
# 106181
# 120686
# 141609
# 158353
# 172716
# 192087
# 208425
# 223715
#
# Disc length: 3144 seconds
#
#
# Revision: 0
# Processed by: cddbd v1.5.1PL0 Copyright (c) Steve Scherf et al.
# Submitted via: FreeRIP 2.93 
#
DISCID=af0c450e
DTITLE=Kap-Kid - Stare trampske
DYEAR=1900
DGENRE=
TTITLE0=Je na zapad
TTITLE1=Ztracena stopa
TTITLE2=Honolulu
TTITLE3=Jdu z dalky
TTITLE4=Krcma v Odese
TTITLE5=Zhavy den
TTITLE6=Navrat
TTITLE7=Cowboy z Cherokee
TTITLE8=Kanoe
TTITLE9=Sanghaj
TTITLE10=Venezuelana
TTITLE11=Na severu v bile
TTITLE12=Vdovy z Cordoby
TTITLE13=Soumrak
EXTD=
EXTT0=
EXTT1=
EXTT2=
EXTT3=
EXTT4=
EXTT5=
EXTT6=
EXTT7=
EXTT8=
EXTT9=
EXTT10=
EXTT11=
EXTT12=
EXTT13=
PLAYORDER=
